<svg xmlns="http://www.w3.org/2000/svg" viewBox="0 0 200 200" enable-background="new 0 0 200 200"><g fill="#fff"><path d="m44.1 116c1.7 0 3.1-.7 4.2-2.1l2.3 2.3c-1.8 2-3.9 3-6.3 3-2.4 0-4.4-.8-6-2.3-1.6-1.5-2.4-3.5-2.4-5.8 0-2.3.8-4.3 2.4-5.9 1.6-1.6 3.6-2.3 5.9-2.3 2.6 0 4.8 1 6.5 3l-2.2 2.5c-1.1-1.4-2.5-2.1-4.2-2.1-1.3 0-2.5.4-3.4 1.3-.9.9-1.4 2-1.4 3.5s.4 2.6 1.3 3.5c.9 1 2 1.4 3.3 1.4"/><path d="m66.2 108.6c0 2.5-1 4.2-3 4.9l4 5.6h-4.3l-3.5-5h-2.4v5h-3.5v-15.8h6c2.5 0 4.2.4 5.3 1.2.8.9 1.4 2.3 1.4 4.1m-4.3 1.9c.4-.4.7-1 .7-1.9 0-.9-.2-1.4-.7-1.8-.5-.3-1.2-.5-2.4-.5h-2.6v4.7h2.6c1.2.1 2-.1 2.4-.5"/><path d="m69.8 103.4h3.5v15.8h-3.5v-15.8"/><path d="m83.9 106.4v12.7h-3.5v-12.7h-4.5v-3h12.5v3h-4.5"/><path d="m102.3 103.4v3.1h-7.9v3.3h7.1v3h-7.1v3.3h8.1v3.1h-11.6v-15.8h11.4"/><path d="m118.5 108.6c0 2.5-1 4.2-3 4.9l4 5.6h-4.3l-3.5-5h-2.4v5h-3.5v-15.8h6c2.5 0 4.2.4 5.3 1.2.9.9 1.4 2.3 1.4 4.1m-4.3 1.9c.4-.4.7-1 .7-1.9 0-.9-.2-1.4-.7-1.8-.5-.3-1.2-.5-2.4-.5h-2.6v4.7h2.6c1.2.1 2-.1 2.4-.5"/><path d="m122.1 103.4h3.5v15.8h-3.5v-15.8"/><path d="m133.7 115.1c.6.7 1.4 1.1 2.4 1.1 1 0 1.8-.4 2.4-1.1.6-.7.9-1.7.9-3v-8.7h3.5v8.8c0 2.3-.6 4-1.9 5.3-1.3 1.2-2.9 1.8-4.9 1.8-2 0-3.6-.6-4.9-1.9-1.3-1.2-1.9-3-1.9-5.3v-8.8h3.5v8.7c0 1.4.3 2.4.9 3.1"/><path d="m160.6 109.2l-4.3 8.6h-2.1l-4.2-8.6v9.9h-3.5v-15.8h4.8l4.1 8.7 4.1-8.7h4.7v15.8h-3.5v-9.9z"/><path d="m75.6 136.2h3.5v5.6c-1.6 1.7-3.7 2.6-6.5 2.6-2.3 0-4.3-.8-5.8-2.3-1.6-1.5-2.4-3.5-2.4-5.8 0-2.3.8-4.3 2.4-5.9 1.6-1.6 3.5-2.3 5.8-2.3 2.3 0 4.2.7 5.9 2.2l-1.8 2.6c-.7-.6-1.4-1-2-1.3-.6-.2-1.2-.4-1.9-.4-1.3 0-2.5.5-3.4 1.4-.9.9-1.4 2.1-1.4 3.6 0 1.5.4 2.7 1.3 3.6.9.9 1.9 1.3 3.2 1.3 1.2 0 2.2-.2 3-.7v-4.2z"/><path d="m82.3 128.4h3.5v15.8h-3.5v-15.8"/><path d="m90.3 131.5v-3h8.2v10.3c0 1.9-.5 3.3-1.5 4.2-1 .9-2.2 1.4-3.7 1.4-1.9 0-3.6-.7-5-2.2l1.8-2.5c.9 1 1.9 1.5 3 1.5.5 0 .9-.2 1.3-.6.4-.4.5-1 .5-1.7v-7.4h-4.6"/><path d="m115.6 142c-1.6 1.6-3.6 2.3-5.9 2.3-2.3 0-4.3-.8-5.9-2.3-1.6-1.6-2.4-3.5-2.4-5.8 0-2.3.8-4.3 2.4-5.8 1.6-1.6 3.6-2.3 5.9-2.3 2.3 0 4.3.8 5.9 2.3 1.6 1.6 2.4 3.5 2.4 5.8 0 2.3-.8 4.3-2.4 5.8m-1.2-5.8c0-1.4-.5-2.6-1.4-3.6-.9-1-2-1.5-3.3-1.5-1.3 0-2.4.5-3.3 1.5-.9 1-1.4 2.2-1.4 3.6 0 1.4.5 2.6 1.4 3.6.9 1 2 1.5 3.3 1.5 1.3 0 2.4-.5 3.3-1.5.9-1 1.4-2.2 1.4-3.6m-3.1-9.4h-3.2l2.9-4 3.5 1.5-3.2 2.5"/><path d="m132 128.4h3.5v15.8h-3.5l-7.5-9.9v9.9h-3.5v-15.8h3.3l7.7 10.2v-10.2"/><path d="m68.2 122.1l1.2 3c0 0 0 0 0 .1 0 .1 0 .1 0 .1v-.1c0-.1 0-.1 0-.1l1.2-3h.8c0 0-.1.1-.1.3-.1.2-.1.3-.2.6-.1.2-.2.5-.3.7-.1.3-.2.6-.4.8-.1.3-.2.6-.4.8-.1.3-.2.5-.3.7-.1.2-.2.4-.2.6-.1.2-.1.2-.1.3 0 0-.1-.1-.1-.3s-.1-.3-.2-.6c-.1-.2-.2-.5-.3-.7-.1-.3-.2-.6-.4-.8-.1-.3-.2-.6-.4-.8-.1-.3-.2-.5-.3-.7s-.2-.4-.2-.6-.1-.2-.1-.3h.8"/><path d="m72.4 122.1h.8v4.7h-.8v-4.7"/><path d="m74.6 126.7v-4.7h.8v3.9h2.3v.7h-3.1z"/><path d="m78.6 126.7v-4.7h.8v3.9h2.3v.7h-3.1z"/><path d="m85.4 126.7c0 0 0-.1-.1-.2 0-.1-.1-.2-.1-.3 0-.1-.1-.2-.2-.4-.1-.1-.1-.3-.2-.4h-1.6l-.5 1.2h-.8c0 0 .1-.1.1-.3.1-.2.1-.3.2-.6s.2-.5.3-.7c.1-.3.2-.6.4-.8.1-.3.2-.6.4-.8.1-.3.2-.5.3-.7.1-.2.2-.4.2-.6.1-.2.1-.2.1-.3 0 0 .1.1.1.3.1.2.1.3.2.6.1.2.2.5.3.7.1.3.2.6.4.8.1.3.2.6.4.8.1.3.2.5.3.7.1.2.2.4.2.6.1.2.1.2.1.3h-.5zm-1.8-1.8h1.1l-.5-1.1c0 0 0 0 0-.1 0-.1 0-.1 0-.1v.1c0 .1 0 .1 0 .1l-.6 1.1"/><path d="m90.4 122.1h1.2c.5 0 .9.1 1.2.2.3.1.6.3.8.6.2.2.4.5.4.8.1.3.1.6.1.9 0 .3-.1.7-.2.9-.1.3-.3.5-.5.7-.2.2-.5.3-.7.4-.3.1-.6.2-.9.2h-1.4v-4.7m1.3 3.9c.2 0 .5 0 .7-.1.2-.1.4-.2.5-.3.1-.1.3-.3.3-.5.1-.2.1-.4.1-.7 0-.3-.1-.5-.1-.7-.1-.2-.2-.4-.4-.5-.2-.1-.3-.2-.5-.3-.2-.1-.4-.1-.5-.1h-.6v3.2h.5"/><path d="m95.3 126.7v-4.7h3.1v.7h-2.3v1.3h2.1v.7h-2.1v1.2h2.4v.7h-3.2z"/><path d="m83.6 150.5l1.3 3.1c0 0 0 0 0 .1 0 .1 0 .1 0 .2 0 0 0-.1 0-.2 0-.1 0-.1 0-.1l1.3-3.1h.8c0 0-.1.1-.1.3-.1.2-.1.3-.2.6-.1.2-.2.5-.3.8-.1.3-.2.6-.4.9-.1.3-.2.6-.4.9-.1.3-.2.5-.3.8-.1.2-.2.4-.2.6-.1.2-.1.3-.1.3 0 0-.1-.1-.1-.3-.1-.2-.1-.3-.2-.6-.1-.2-.2-.5-.3-.8-.1-.3-.2-.6-.4-.9-.1-.3-.2-.6-.4-.9-.1-.3-.2-.5-.3-.8-.1-.2-.2-.4-.2-.6-.1-.2-.1-.3-.1-.3h.6"/><path d="m87.6 150.5h.8v4.8h-.8v-4.8"/><path d="m91 155.2v-4.8h3.2v.7h-2.4v1.3h2.1v.7h-2.1v1.3h2.5v.7h-3.3z"/><path d="m95 150.5h1.2c.5 0 .9.1 1.2.2.3.1.6.3.8.6.2.2.4.5.5.8.1.3.1.6.1.9 0 .4-.1.7-.2 1-.1.3-.3.5-.5.7-.2.2-.5.4-.8.5-.3.1-.6.2-.9.2h-1.4v-4.9m1.4 4c.2 0 .5 0 .7-.1.2-.1.4-.2.5-.3.2-.1.3-.3.4-.5.1-.2.1-.4.1-.7 0-.3-.1-.5-.2-.8-.1-.2-.2-.4-.4-.5-.2-.1-.3-.2-.5-.3-.2-.1-.4-.1-.5-.1h-.6v3.2h.5z"/><path d="m99.7 150.5h.8v4.8h-.8v-4.8"/><path d="m105.2 154.9c-.1 0-.1.1-.2.1-.1 0-.2.1-.3.1s-.3.1-.4.1c-.2 0-.3 0-.5 0-.4 0-.7-.1-1-.2-.3-.1-.5-.3-.8-.5-.2-.2-.4-.5-.5-.8-.1-.3-.2-.6-.2-.9 0-.4.1-.7.2-1 .1-.3.3-.6.5-.8.2-.2.5-.4.8-.5.3-.1.6-.2 1-.2.1 0 .3 0 .4 0 .1 0 .3 0 .4.1.1 0 .2.1.3.1.1 0 .2.1.2.1 0 .1-.1.1-.1.2 0 0 0 .1-.1.1 0 0-.1.1-.1.1 0 .1-.1.1-.1.2-.1 0-.1-.1-.2-.1-.1 0-.2 0-.2-.1-.1 0-.2 0-.2 0-.1 0-.2 0-.2 0-.2 0-.5 0-.7.1-.2.1-.4.2-.5.4-.2.2-.3.3-.4.5-.1.2-.1.4-.1.6 0 .2 0 .4.1.6.1.2.2.4.3.5.1.2.3.3.5.4.2.1.4.1.7.1.1 0 .3 0 .4 0 .1 0 .2-.1.3-.1.1 0 .2-.1.2-.1.1 0 .1-.1.1-.1l.4 1"/><path d="m105.8 150.5h.8v4.8h-.8v-4.8"/><path d="m107.4 152.8c0-.3.1-.6.2-.9.1-.3.3-.6.5-.8.2-.2.5-.4.8-.5.3-.1.6-.2.9-.2.3 0 .6.1.9.2.3.1.6.3.8.5.2.2.4.5.5.8.1.3.2.6.2.9 0 .3-.1.6-.2.9-.1.3-.3.6-.5.8-.2.2-.5.4-.8.5-.3.1-.6.2-.9.2-.3 0-.6-.1-.9-.2-.3-.1-.6-.3-.8-.5-.2-.2-.4-.5-.5-.8-.2-.2-.2-.5-.2-.9m.8 0c0 .2 0 .4.1.6.1.2.2.4.4.5.2.2.3.3.5.4.2.1.4.1.6.1.2 0 .4 0 .6-.1.2-.1.4-.2.5-.4.1-.2.3-.3.3-.5.1-.2.1-.4.1-.6 0-.2 0-.4-.1-.6-.1-.2-.2-.4-.4-.5-.1-.2-.3-.3-.5-.4-.2-.1-.4-.1-.6-.1-.2 0-.4 0-.6.1-.2.1-.4.2-.5.4-.1.2-.3.3-.3.5-.1.2-.1.4-.1.6m1.2-2.6c.1-.1.2-.3.3-.4.1-.1.2-.3.3-.4h.7c-.1.1-.3.3-.4.4-.1.1-.3.3-.4.4h-.5"/><path d="m117.2 150.5v5c0 0-.1-.1-.2-.2s-.2-.2-.4-.4c-.2-.1-.3-.3-.5-.5-.2-.2-.4-.4-.6-.5-.2-.2-.4-.4-.6-.5-.2-.2-.3-.3-.5-.5-.2-.1-.3-.3-.4-.4-.1-.1-.2-.2-.2-.2 0 0 0 0-.1-.1 0 0-.1-.1-.1-.1v.2 2.9h-.6v-5c0 0 .1.1.2.2.1.1.2.2.4.4.2.1.3.3.5.5.2.2.4.3.6.5.2.2.4.4.6.5.2.2.4.3.5.5.2.1.3.3.4.4.1.1.2.2.2.2l.1.2v-.2-2.9h.7"/><path d="M100,200c-5.2,0-10-2-13.7-5.7L5.7,113.7C2,110,0,105.2,0,100c0-5.2,2-10,5.7-13.7L86.3,5.7
			C90,2,94.8,0,100,0s10,2,13.7,5.7l80.7,80.7C198,90,200,94.8,200,100c0,5.2-2,10-5.7,13.7l-80.7,80.7C110,198,105.2,200,100,200z
			 M100,4.3c-4,0-7.8,1.6-10.6,4.4L8.7,89.4C5.9,92.2,4.3,96,4.3,100c0,4,1.6,7.8,4.4,10.6l80.7,80.7c2.8,2.8,6.6,4.4,10.6,4.4
			s7.8-1.6,10.6-4.4l80.7-80.7c2.8-2.8,4.4-6.6,4.4-10.6c0-4-1.6-7.8-4.4-10.6L110.6,8.7C107.8,5.9,104,4.3,100,4.3z"/><path d="m95.3 163c.1-.2.2-.3.2-.5 0-.2-.1-.3-.2-.4-.1-.1-.3-.2-.5-.2-.4 0-.6.2-.9.5l-.6-.3c.2-.3.4-.5.6-.6.2-.1.5-.2.9-.2.4 0 .7.1.9.3.3.2.4.5.4.9 0 .2-.1.4-.2.6-.1.2-.3.5-.6.8l-1 1h2v.7h-3v-.6l1.3-1.3c.3-.3.5-.5.7-.7"/><path d="m97.4 165.1c-.3-.4-.4-.9-.4-1.6s.1-1.2.4-1.6c.3-.4.7-.6 1.3-.6s1 .2 1.3.6c.3.4.4.9.4 1.6s-.1 1.2-.4 1.6c-.3.4-.7.6-1.3.6s-1-.2-1.3-.6m.5-2.8c-.2.3-.3.7-.3 1.2 0 .5.1.9.3 1.2.2.3.4.4.8.4.4 0 .6-.1.8-.4.2-.3.3-.7.3-1.2 0-.5-.1-.9-.3-1.2-.2-.3-.4-.4-.8-.4-.3 0-.6.1-.8.4"/><path d="m101 161.4h1.6v4.3h-.7v-3.7h-.9v-.6"/><path d="m105.4 161.9c-.4 0-.7.1-.8.4-.2.3-.3.6-.3 1.1.1-.1.3-.2.4-.3.2-.1.4-.2.6-.2.4 0 .7.1 1 .4.3.3.4.6.4 1s-.1.8-.4 1c-.3.3-.6.4-1.1.4-.7 0-1.2-.3-1.4-.9-.1-.4-.2-.8-.2-1.2 0-.4 0-.8.1-1.1s.2-.5.4-.7c.3-.3.7-.5 1.2-.5.5 0 .9.1 1.3.4l-.4.5c-.1-.1-.2-.2-.4-.2-.1 0-.3-.1-.4-.1m-.1 1.6c-.2 0-.5.1-.6.2-.2.1-.3.3-.3.5 0 .2.1.4.2.6.2.2.4.2.6.2.2 0 .4-.1.6-.2s.2-.3.2-.5c0-.2-.1-.4-.2-.6-.1-.1-.3-.2-.5-.2"/><g fill-rule="evenodd"><path d="m61.1 80h18.5l1 .9h-19.5z"/><path d="m62.4 78.1h15.7l.8.9h-16.5z"/><path d="m56.4 82h24.8l.9 1h-25.7z"/><g fill-opacity=".902"><path d="m143 83h-25.6l.8-1h24.8z"/><path d="m138.3 80v.9h-19.1l1-.9z"/><path d="m137 78.1v.9h-16l.7-.9z"/></g><path d="m44.8 87.2h109.2v1.7h-109.2z"/><path d="m48 84.5h102.9v1.4h-102.9z"/><path d="m39.9 94.5h120.2v2.6h-120.2z"/><path d="m43.1 90.5h113.9v2.3h-113.9z"/></g><path d="m116.2 63.5c-.1-.1-.1-.2-.2-.3-1.7-.4-3.5-.7-5.2-1 0 0-.1.1-.2.1v1.6h1.2c.8 0 1.4 0 1.9.1.5 0 1.3.2 2.5.4v-.9"/><path d="m110.7 59v.7c0 0 .1.1.1.1.1 0 .1.1.1.1 1.8.2 3.5.5 5 .9 0-.3.1-.5.1-.8 0-.1.1-.2.1-.2-1.7-.3-3.5-.7-5.4-.8"/><path d="m86.2 64c.4 0 1.1-.1 1.9-.1h1.2v-1.5c-.1 0-.1-.1-.2-.1-1.8.2-3.6.5-5.4 1 0 .1-.1.2-.2.3v1c1.2-.4 2.1-.5 2.7-.6"/><path d="m108.6 62.5c-.1 0-.1-.1-.2-.2-.1-.1-.2-.2-.3-.3-.2 0-.3 0-.5 0-.9.8-1.9 1.5-3.1 2h4.1v-1.5"/><path d="m83.9 60.2c.1.2.2.5.2.7 1.5-.4 3.2-.7 4.9-.9 0-.1.1-.1.2-.2 0 0 .1-.1.1-.1v-.7c0 0-.1 0-.1-.1-1.8.2-3.7.5-5.5 1 .1.1.1.2.2.3"/><path d="m80.5 56.3c-.6.3-1.4.7-1.6.9 0 0-.1.1-.1.1 0 .2.1.4.1.6 0 .1.1.3.3.4.2.1.7.2 1.2.3 0-.1 0-.1.1-.2v-.7-.7h.7 1.8.7v.7.1c1.7-.4 3.4-.8 5.3-1 0 0 0-.1.1-.1-.3-1-.4-2.1-.4-3.1 0-5.7 4.1-10.4 9.5-11.3v-6.7c-.4-.4-.8-.9-.9-1.4-.3-.6-.7-1.4-.9-1.6 0 0-.1-.1-.2-.1-.2 0-.3.1-.5.1 0 0-.3.1-.4.3-.1.3-.3 1.6-.3 2.1 0 0 0 .6-.2 1-.2.6-.7 1.2-1.3 1.5-1.2.6-2.6.2-3.4-.8-.5-.4-1.2-1-1.5-1.1-.1 0-.1 0-.2 0-.1.1-.3.2-.4.3 0 0-.3.2-.3.4 0 .3.3 1.6.5 2.1 0 0 .2.5.2 1.1 0 .7-.2 1.4-.7 1.9-.9 1-2.3 1.2-3.4.6-.6-.2-1.5-.5-1.8-.5-.1 0-.1 0-.2.1-.1.1-.2.3-.3.4 0 0-.2.3-.1.5.1.3.9 1.3 1.2 1.7 0 0 .4.4.6.9.3.6.3 1.3.1 2-.4 1.3-1.7 2-2.9 1.8-.6 0-1.6.1-1.8.2 0 0-.1.1-.1.1 0 .2-.1.3-.1.5 0 0 0 .3.1.5.2.2 1.3.9 1.8 1.1 0 0 .5.2.9.6.5.5.8 1.1.9 1.8 0 1.1-.8 2.3-2.1 2.6"/><path d="m102.1 42.2c5.3 1 9.3 5.6 9.3 11.2 0 1.1-.2 2.1-.4 3.1 0 0 .1.1.1.1 1.8.2 3.6.5 5.2 1v-.1-.7h.7 1.6.7v.7.6c0 .1.1.1.1.2.6 0 1.3-.1 1.5-.2 0 0 0 0 .1 0 .1-.2.1-.5.1-.7 0-.1 0-.2-.1-.3-.2-.2-1.3-.9-1.8-1.1 0 0-.5-.2-.9-.6-.5-.5-.8-1.1-.9-1.8-.1-1.3.8-2.5 2-2.8.6-.3 1.4-.7 1.6-.9 0 0 0 0 0-.1 0-.2-.1-.5-.1-.7 0-.1-.1-.2-.2-.3-.3-.1-1.6-.3-2.1-.3 0 0-.6 0-1-.2-.6-.2-1.2-.7-1.5-1.3-.6-1.2-.2-2.6.8-3.4.4-.5 1-1.2 1.1-1.5 0 0 0-.1 0-.1-.1-.2-.2-.4-.4-.5-.1-.1-.2-.2-.3-.2-.3 0-1.6.3-2.1.5 0 0-.5.2-1.1.2-.7 0-1.4-.2-1.9-.7-1-.9-1.2-2.3-.6-3.4.2-.6.5-1.5.5-1.8 0 0 0-.1 0-.1-.1-.1-.3-.2-.4-.3-.1 0-.3-.1-.5-.1-.3.1-1.3.9-1.7 1.2 0 0-.4.4-.9.6-.6.3-1.3.3-2 .1-1.3-.4-2-1.7-1.8-2.9 0-.6-.1-1.6-.2-1.8 0 0-.1-.1-.1-.1-.2 0-.3-.1-.5-.1 0 0-.3 0-.5.1-.2.2-.9 1.3-1.1 1.8 0 0-.1.3-.3.6v7.1"/><path d="m91.9 62c-.1.1-.2.2-.3.3-.1.1-.1.1-.2.2v1.4h4c-1.1-.5-2.2-1.2-3.1-2-.1.1-.2.1-.4.1"/><g fill-rule="evenodd"><path d="m99 17.3c-.5.4-1.1.7-1.7 1-2.1 1-4.4 1.5-6.9 1.6v5c2 .6 4.2.4 6.9-.5.5-.2 1.1-.4 1.7-.7.4-.2.8-.4 1.1-.5 0 0 0 0 .1 0v-6.5-.1c-.4.1-.8.4-1.2.7m-.2 4.7c-.1.2-.6.5-1.5 1-.2.1-.5.2-.8.4-1.3.6-2.8.7-4.5.4v-3c2 0 3.7-.4 5.3-1.2.2-.1.4-.2.6-.3.3-.2.6-.3.8-.5v3.2z"/><path d="m128.9 72h-1.4l-1.5-.1-4.8-2.7v-2l-2.7-1.8v-2.3c.1-.2.2-.4.2-.6 0-.2-.1-.4-.2-.6v-2.3c.2-.2.2-.4.2-.6 0-.2-.1-.5-.2-.6v-.8h-1.6v.9c0 0-.1.1-.1.1-1.9-.6-4-1-6.2-1.2 0-.2-.1-.3-.3-.4-.2-.2-.4-.3-.7-.3-.3 0-.5.1-.7.3-.1.1-.1.1-.1.2-1.8-.1-4.1-.1-6.1 0v.8c1.9-.1 4.1 0 6 .1 0 .1.1.3.3.4.1.1.3.2.4.2v1.5c-.2 0-.3.1-.4.3 0 0-.1.1-.1.1-1.8-.1-4.1-.1-6.1 0v.8c1.9-.1 4.1 0 5.9.1 0 .2.1.4.3.5.1.1.3.2.4.2v2.6h.7v-2.8c.1-.1.3-.1.4-.2.1-.1.1-.2.2-.2 2.1.2 4.1.6 6.1 1.1 0 .2.1.4.3.6v1.9.1c-1.5-.3-2.6-.5-3.2-.5-.4 0-1-.1-1.8-.1h-9.2v-3.4c0 0 0 0 0 0v-.8c0 0 0 0 0 0v-2.5c0 0 0 0 0 0v-.8c0 0 0 0 0 0v-.5l-.5-1h-.5v-10.5l-.3-.5v-11h.9v-3.5h-1v-2.2h-.1-.8v-11.6h-.5v6.6c0 0 0 0-.1 0v5h-1-.2v2.3h-1v3.5h1v11l-.3.5v10.4h-.5l-.5 1v8h-9.4c-.8 0-1.5 0-1.9.1-.7 0-1.6.2-2.8.6h-.5v-2c.2-.2.3-.4.3-.6 2.1-.5 4.1-.9 6.2-1.1 0 .1.1.2.2.2.1.1.2.2.4.2v2.6h.7v-2.7c.2 0 .3-.1.4-.2.2-.1.3-.3.3-.5 1.7-.1 3.5-.2 5.2-.1 0 0 0 0 0 0 .1 0 .3 0 .4 0 0 0 .3 0 .3 0v-.8c0 0-.3 0-.3 0-2.1-.1-4-.1-5.9.1 0 0 0-.1-.1-.1-.1-.1-.3-.2-.4-.3v-1.5c.2 0 .3-.1.4-.2.1-.1.2-.2.3-.4 1.7-.1 3.5-.2 5.3-.1 0 0 0 0 0 0 .1 0 .3 0 .4 0 0 0 .3 0 .3 0v-.8c0 0-.3 0-.3 0-2-.1-4-.1-5.8 0 0-.1-.1-.1-.2-.2-.2-.2-.5-.3-.8-.3-.3 0-.5.1-.8.3-.1.1-.2.3-.3.4-2 .3-4.1.7-6.1 1.2 0 0-.1-.1-.1-.1v-.8h-1.8v.9c-.1.1-.1.3-.1.5 0 .2 0 .4.1.5v2.6c-.1.1-.1.2-.1.4 0 .1 0 .3.1.4v3l-2.7 1.3v2l-4.9 2.7-2.2.1h-.9v4.5h1.9l6.4-.1v-.1l5.6 6.5h32l3.5-4.4 1.4-2.1 6.6.1h1.9v-4.4h-.8m-45.9-12.4c.1-.1.1-.2.2-.3 2.1-.5 4.2-.9 6.4-1.1 0 0 .1.1.1.1.1.1.2.2.4.3v1.5c-.1 0-.3.1-.4.2-.1.1-.2.2-.2.3-2.3.2-4.5.7-6.5 1.3v-2.3m33.9 2.3c-1.9-.6-4.1-1-6.3-1.3-.1-.1-.1-.2-.2-.3-.1-.1-.2-.2-.4-.2v-1.5c.1-.1.3-.1.4-.3 0 0 .1-.1.1-.1 2.1.2 4.2.6 6.3 1.1 0 .1.1.2.2.3v2.3z"/></g></g></svg>