<svg viewBox="0 0 16 32" xmlns="http://www.w3.org/2000/svg"><g fill="none" fill-rule="evenodd"><path d="m12.424 0c.029.003.058.007.087.008.433.016.867.023 1.3.047.485.027.97.068 1.454.107.159.012.317.033.479.051-.044 1.694-.087 3.381-.131 5.07h-.084c-1.146-.005-2.291-.011-3.437-.016-.334-.001-.665.023-.989.104-.608.151-.996.516-1.145 1.119-.087.352-.106.711-.107 1.071-.002 1.277-.001 2.555-.001 3.832.036.07.064.07.091.07h5.743c.03 0 .059-.001.089-.001v.137c-.039.673-.07 1.299-.1 1.924-.023.481-.045.962-.068 1.443-.029.605-.058 1.21-.087 1.815-.001.036-.006.072-.009.112h-5.659v14.857h-5.845v-14.858h-.069c-1.289 0-2.578 0-3.867 0-.023 0-.046.002-.069.003v-5.433c1.335.001 2.645.001 3.956.001.016 0 .032-.003.052-.005 0-1.572-.001-3.06 0-4.549 0-.637.073-1.266.236-1.883.502-1.892 1.63-3.291 3.418-4.165 1.081-.528 2.239-.763 3.437-.836.139-.009.277-.016.416-.024h.91" fill="#fff"/></g></svg>