<svg viewBox="0 0 20 32" xmlns="http://www.w3.org/2000/svg"><g fill="none" fill-rule="evenodd"><path d="m4.292 24.336c0 1.462.154 2.58.46 3.35.308.77.856 1.498 1.652 2.182.792.68 1.752 1.21 2.876 1.58 1.126.368 1.986.552 3.45.552 1.288 0 2.486-.13 3.596-.388 1.108-.26 2.3-.636 3.666-1.278v-4.812c-1.602 1.054-2.56 1.268-4.18 1.268-.91 0-1.718-.212-2.428-.638-.534-.314-1.022-.858-1.218-1.38-.198-.526-.174-1.596-.174-3.454l.004-7.318h7.998v-6h-7.998v-8h-5.16c-.204 1.65-.58 3.01-1.122 4.078-.542 1.07-1.262 1.984-2.16 2.748-.892.762-2.298 1.348-3.554 1.756v5.418h4.294v10.336h-.002" fill="#fff"/></g></svg>