<svg viewBox="0 0 32 32" xmlns="http://www.w3.org/2000/svg"><g fill="none" fill-rule="evenodd"><path d="m32 28.3c0 .491-.078.965-.276 1.412-.553 1.251-1.501 2.01-2.855 2.24-.188.032-.381.041-.572.041-2.266.003-4.533.002-6.799.002-5.924 0-11.848-.001-17.772.002-.508 0-.998-.08-1.459-.287-1.276-.575-2.029-1.555-2.232-2.944-.03-.205-.034-.415-.034-.623-.002-7.315-.001-14.629-.001-21.944 0-.825-.001-1.65 0-2.474.002-.957.317-1.798.959-2.507.597-.66 1.341-1.058 2.226-1.177.189-.026.381-.039.572-.039 8.165-.002 16.33.001 24.496-.004 1.542-.001 2.891.907 3.464 2.274.189.45.281.92.281 1.411-.003 4.107-.002 8.214-.001 12.322 0 4.099-.001 8.198.002 12.297m-28.31-14.843c0 4.34 0 8.68 0 13.02 0 .075-.002.15.001.225.032.733.632 1.181 1.188 1.184.092 0 .183.001.275.001 7.231 0 14.463 0 21.694 0 .083 0 .167-.001.25 0 .634.001 1.196-.527 1.203-1.19.001-.083.001-.167.001-.25 0-4.323 0-8.647 0-12.97 0-.067.003-.134-.002-.2-.003-.047-.018-.092-.026-.135-.039-.006-.064-.012-.088-.012-.841-.001-1.683-.001-2.524 0-.038 0-.076.013-.131.023.515 2.053.404 4.061-.364 6.02-.771 1.968-2.054 3.53-3.825 4.682-3.118 2.029-7.125 2.102-10.315.232-.461-.27-.898-.573-1.308-.916-.403-.337-.78-.701-1.127-1.097-.352-.402-.669-.83-.952-1.283-.279-.446-.521-.91-.722-1.396-.204-.493-.373-.997-.496-1.517-.122-.52-.201-1.045-.243-1.578-.042-.525-.032-1.048.014-1.572.046-.531.155-1.052.27-1.58-.048-.008-.079-.019-.111-.019-.874-.001-1.748-.001-2.654-.001-.002.133-.005.231-.005.33m12.321-4.341c-3.384-.008-6.16 2.724-6.166 6.14-.006 3.471 2.824 6.161 6.14 6.166 3.392.005 6.174-2.762 6.163-6.14.028-3.333-2.687-6.157-6.137-6.166m12.291-4.02c0-.316-.002-.633-.001-.949.001-.401-.25-.905-.793-1.109-.158-.06-.321-.079-.489-.079-.907.002-1.815.001-2.722.001-.316 0-.633-.005-.949.002-.575.013-1.053.416-1.166.98-.024.121-.032.248-.032.372-.002 1.149-.001 2.298-.001 3.446 0 .058-.003.117.003.175.049.529.315.901.811 1.101.157.063.322.077.49.076 1.182-.002 2.364-.001 3.547-.001.042 0 .083.001.125-.001.368-.021.674-.168.907-.457.185-.228.274-.49.273-.785-.003-.608-.001-1.215-.001-1.823 0-.316.001-.633 0-.949" fill="#fff"/></g></svg>