<?xml version="1.0" encoding="UTF-8" standalone="no"?>
<svg width="116px" height="62px" viewBox="0 0 116 62" version="1.1" xmlns="http://www.w3.org/2000/svg" xmlns:xlink="http://www.w3.org/1999/xlink">
    <!-- Generator: Sketch 3.6 (26304) - http://www.bohemiancoding.com/sketch -->
    <title>Group</title>
    <desc>Created with Sketch.</desc>
    <defs></defs>
    <g id="Page-1" stroke="none" stroke-width="1" fill="none" fill-rule="evenodd">
        <g id="Group" transform="translate(-0.000000, -1.000000)" fill="#FFFFFF">
            <path d="M108.133236,28.6827055 C107.758545,27.7448145 106.633309,27.1827782 105.9456,27.1827782 C103.944145,27.1827782 103.319273,29.9324509 103.319273,32.3702691 C103.319273,34.7464145 103.944145,37.2470691 105.9456,37.2470691 C106.820655,37.2470691 107.632873,36.4348509 108.133236,35.8088145 L108.133236,28.6827055 Z M111.696291,39.3101964 C110.509382,39.3101964 109.508655,38.68416 108.820945,37.7462691 C107.758545,38.7469964 106.507636,39.3101964 105.007709,39.3101964 C101.194473,39.3101964 98.6938182,36.0589964 98.6938182,32.3702691 C98.6938182,28.8700509 101.0688,25.1813236 104.882036,25.1813236 C106.070109,25.1813236 107.195345,25.6200145 108.133236,26.2448873 L108.133236,25.5571782 L112.384,25.5571782 L112.384,36.9340509 C112.384,37.1842327 112.509673,37.2470691 112.697018,37.2470691 C113.384727,37.2470691 113.696582,36.2463418 113.696582,35.6214691 L115.447855,35.6214691 C115.447855,37.7462691 113.822255,39.3101964 111.696291,39.3101964 L111.696291,39.3101964 Z" id="Fill-13"></path>
            <path d="M94.8945455,39.3098473 C92.8314182,39.3098473 91.2058182,37.6842473 91.2058182,35.62112 L91.2058182,28.3076655 C91.2058182,27.55712 90.5181091,27.1824291 89.8315636,27.1824291 C89.0181818,27.1824291 86.6432,28.1831564 86.6432,30.4953018 L86.6432,39.2470109 L82.3296,39.2470109 L82.3296,27.6199564 C82.3296,27.3697745 82.2039273,27.2452655 81.9549091,27.2452655 C81.4545455,27.2452655 81.0786909,28.1831564 81.0786909,28.8708655 L79.2657455,28.8708655 C79.2657455,26.8077382 80.8913455,25.1821382 82.9544727,25.1821382 C84.5800727,25.1821382 85.7681455,25.9326836 86.3301818,27.4326109 C87.5182545,26.1200291 89.3928727,25.1821382 91.2058182,25.1821382 C95.0818909,25.1821382 95.7079273,27.8073018 95.7079273,29.6202473 C95.7079273,31.1830109 95.5822545,35.4337745 95.5822545,36.8091927 C95.5822545,37.1838836 95.7696,37.24672 95.8952727,37.24672 C96.4573091,37.24672 96.7074909,36.0586473 96.7703273,35.62112 L98.5821091,35.62112 C98.5821091,37.6842473 96.9576727,39.3098473 94.8945455,39.3098473" id="Fill-11"></path>
            <path d="M77.16864,39.1847564 C75.1055127,39.1847564 73.5427491,37.5591564 73.5427491,35.4960291 L73.5427491,25.5574109 L77.7935127,25.5574109 L77.7935127,36.8086109 C77.7935127,36.99712 77.9191855,37.1216291 78.1065309,37.1216291 C78.6685673,37.1216291 79.0444218,35.9335564 79.0444218,35.4960291 L80.8573673,35.4960291 C80.8573673,37.5591564 79.2317673,39.1847564 77.16864,39.1847564 M75.6687127,20.2430836 C74.1059491,20.2430836 72.9178764,19.0561745 72.9178764,17.4922473 C72.9178764,15.9306473 74.1059491,14.6797382 75.6687127,14.6797382 C77.2314764,14.6797382 78.4195491,15.9306473 78.4195491,17.4922473 C78.4195491,18.9933382 77.16864,20.2430836 75.6687127,20.2430836" id="Fill-9"></path>
            <path d="M71.5331491,5.42813091 C71.0956218,4.92776727 70.4707491,4.67758545 69.7202036,4.67758545 L69.7202036,36.9335855 C69.7202036,37.1220945 69.8447127,37.2466036 70.0332218,37.2466036 C70.5324218,37.2466036 70.9711127,36.0585309 70.9711127,35.6210036 L72.7828945,35.6210036 C72.7828945,37.6841309 71.1572945,39.3097309 69.0953309,39.3097309 C67.0322036,39.3097309 65.4066036,37.6841309 65.4066036,35.6210036 L65.4066036,7.24107636 C65.4066036,4.86609455 67.4068945,2.86464 69.78304,2.86464 C70.9082764,2.86464 72.0335127,3.30333091 72.8457309,4.11554909 L71.5331491,5.42813091 Z" id="Fill-7"></path>
            <path d="M57.4996945,28.6827055 C57.1250036,27.7448145 55.9997673,27.1827782 55.3120582,27.1827782 C53.3117673,27.1827782 52.6857309,29.9324509 52.6857309,32.3702691 C52.6857309,34.7464145 53.3117673,37.2470691 55.3120582,37.2470691 C56.1871127,37.2470691 56.9993309,36.4348509 57.4996945,35.8088145 L57.4996945,28.6827055 Z M61.0627491,39.3101964 C59.8746764,39.3101964 58.8751127,38.68416 58.1874036,37.7462691 C57.1250036,38.7469964 55.8740945,39.3101964 54.3741673,39.3101964 C50.5609309,39.3101964 48.0602764,36.0589964 48.0602764,32.3702691 C48.0602764,28.8700509 50.4352582,25.1813236 54.2484945,25.1813236 C55.4365673,25.1813236 56.5618036,25.6200145 57.4996945,26.2448873 L57.4996945,25.5571782 L61.7504582,25.5571782 L61.7504582,36.9340509 C61.7504582,37.1842327 61.8761309,37.2470691 62.0623127,37.2470691 C62.7511855,37.2470691 63.06304,36.2463418 63.06304,35.6214691 L64.8131491,35.6214691 C64.8131491,37.7462691 63.1887127,39.3101964 61.0627491,39.3101964 L61.0627491,39.3101964 Z" id="Fill-5"></path>
            <path d="M44.1220655,39.1847564 C42.0589382,39.1847564 40.4333382,37.5591564 40.4333382,35.4960291 L40.4333382,26.9956655 L38.6832291,26.9956655 L38.6832291,25.1815564 L40.4333382,25.1815564 L40.4333382,14.6797382 L44.7469382,14.6797382 L44.7469382,25.1815564 L47.6234473,25.1815564 L47.6234473,26.9956655 L44.7469382,26.9956655 L44.7469382,36.8086109 C44.7469382,36.99712 44.8726109,37.1216291 45.0599564,37.1216291 C45.56032,37.1216291 45.9978473,35.8718836 45.9978473,35.4960291 L47.8107927,35.4960291 C47.8107927,37.5591564 46.1851927,39.1847564 44.1220655,39.1847564" id="Fill-3"></path>
            <path d="M32.3246545,28.6827055 C31.9499636,27.7448145 30.8247273,27.1827782 30.1370182,27.1827782 C28.1367273,27.1827782 27.5118545,29.9324509 27.5118545,32.3702691 C27.5118545,34.7464145 28.1367273,37.2470691 30.1370182,37.2470691 C31.0120727,37.2470691 31.8242909,36.4348509 32.3246545,35.8088145 L32.3246545,28.6827055 Z M35.8877091,39.3101964 C34.6996364,39.3101964 33.7000727,38.68416 33.0123636,37.7462691 C31.9499636,38.7469964 30.6990545,39.3101964 29.1991273,39.3101964 C25.3858909,39.3101964 22.8852364,36.0589964 22.8852364,32.3702691 C22.8852364,28.8700509 25.2602182,25.1813236 29.0734545,25.1813236 C30.2615273,25.1813236 31.3867636,25.6200145 32.3246545,26.2448873 L32.3246545,25.5571782 L36.5754182,25.5571782 L36.5754182,36.9340509 C36.5754182,37.1842327 36.7010909,37.2470691 36.8884364,37.2470691 C37.5761455,37.2470691 37.888,36.2463418 37.888,35.6214691 L39.6392727,35.6214691 C39.6392727,37.7462691 38.0136727,39.3101964 35.8877091,39.3101964 L35.8877091,39.3101964 Z" id="Fill-1"></path>
            <path d="M39.0073018,52.7478691 C37.4561745,53.35296 35.5792291,54.2000873 33.8058473,53.5554327 C33.5882473,52.6268509 34.5401018,52.1288145 35.3953745,51.0733964 C36.6032291,49.5816145 36.7556655,48.5052509 38.2905018,48.6123055 C38.9898473,48.6611782 39.8742109,49.0707782 40.8016291,49.1906327 C41.6417745,49.3000145 42.6599564,49.2139055 43.0160291,49.7771055 C42.6669382,51.50976 40.4432291,52.18816 39.0073018,52.7478691 L39.0073018,52.7478691 Z M35.3290473,44.9003055 C35.9597382,44.62336 36.6265018,44.4418327 37.5899927,45.07136 C38.5534836,46.3595055 36.8871564,48.7496145 35.0381382,47.1053964 C34.7681745,46.50496 34.7460655,45.81376 35.3290473,44.9003055 L35.3290473,44.9003055 Z M13.7994473,41.8015418 C13.6772655,42.7452509 13.7657018,43.8530327 13.0454109,44.3766691 C11.5210473,44.2160873 10.9380655,42.0959418 10.31552,40.4796509 C9.60453818,38.63296 8.39552,36.5058327 9.37762909,34.9256145 C10.3422836,34.7580509 10.6180655,35.6843055 11.2580655,36.2358691 C12.3099927,37.1435055 14.0368291,37.6008145 14.3044655,38.8168145 C14.4778473,39.6045964 13.9216291,40.8520145 13.7994473,41.8015418 L13.7994473,41.8015418 Z M21.4526836,11.7040873 C22.2974836,11.2944873 23.6973382,10.8255418 24.7993018,10.4752873 C26.0246109,10.0866327 27.6350836,9.43965091 28.0400291,10.5055418 C28.2669382,11.1024873 26.9229382,12.1323055 26.1689018,13.1144145 C25.3369018,14.19776 25.0331927,15.2717964 24.2267927,15.2799418 C23.7182836,15.2845964 22.4254836,15.0239418 21.7947927,14.9494691 C20.7126109,14.8203055 19.2208291,14.8354327 18.85312,14.1558691 C18.4039564,13.32736 20.47872,12.17536 21.4526836,11.7040873 L21.4526836,11.7040873 Z M26.66112,19.0896873 C26.1409745,19.6843055 23.7264291,19.5516509 24.1232291,17.6223418 C24.6957382,14.8319418 28.2832291,17.2325236 26.66112,19.0896873 L26.66112,19.0896873 Z M16.5328291,35.9007418 C19.7130473,36.1346327 18.0653382,40.0037236 16.0278109,38.8843055 C14.8571927,38.2419782 15.1841745,36.4488145 16.5328291,35.9007418 L16.5328291,35.9007418 Z M46.7489745,47.3427782 C46.6302836,47.4160873 46.5104291,47.4824145 46.3929018,47.5382691 C42.9904291,49.1615418 38.3789382,46.4781964 37.8250473,42.98496 C36.2878836,43.6098327 34.9182836,44.68736 33.1227927,44.6093964 C34.55872,47.0495418 34.3934836,51.2619055 31.4797382,53.2109964 C27.0788655,56.1491782 15.9451927,51.0966691 14.8862836,46.4013964 C14.1473745,43.1280873 16.8889018,39.4754327 19.8934109,39.0658327 C19.4465745,37.4635055 18.3597382,36.0962327 18.2689745,34.3635782 C16.0336291,35.0512873 13.3351564,36.0578327 10.5296291,33.7037964 C5.83086545,29.76256 11.7572655,15.2613236 18.2491927,15.7779782 C21.2606836,16.0176873 23.3982836,18.53696 24.0441018,20.9491782 C25.5777745,20.4034327 27.0020655,19.5632873 28.6265018,19.2688873 C27.3558109,16.7472873 27.6327564,12.5186327 30.6512291,10.60096 L30.6512291,4.25332364 C30.5453382,4.26961455 30.4359564,4.27659636 30.3207564,4.27194182 C28.2657745,4.18001455 28.4729018,2.08081455 27.0695564,1.16386909 C26.0409018,1.75150545 26.2608291,3.31892364 25.6731927,4.17768727 C25.2298473,4.82350545 24.2337745,5.28314182 23.4250473,5.08066909 C21.9274473,4.70714182 21.7936291,3.26656 20.3390836,2.84997818 C19.4582109,3.80183273 20.1982836,5.19121455 19.5140655,6.35834182 C18.9776291,7.27877818 17.7558109,7.62321455 16.8016291,7.27528727 C15.9486836,6.96576 15.2656291,5.70437818 14.1648291,6.05346909 C13.6411927,7.16823273 14.5802473,8.43310545 14.1741382,9.48968727 C13.7226473,10.6637964 12.5846109,11.1059782 11.7584291,11.0012509 C10.5540655,10.8511418 9.32642909,9.72706909 8.81559273,10.4403782 C8.40715636,11.0082327 9.72555636,12.7467055 9.60919273,13.6671418 C9.20890182,16.7891782 6.20904727,15.2322327 4.55901091,15.6755782 C4.70912,17.3151418 6.76642909,18.2355782 5.98795636,19.9984873 C5.19086545,21.8067782 3.17312,21.0981236 1.67901091,21.8917236 C1.66388364,21.9243055 1.65108364,21.95456 1.63595636,21.9859782 C2.18053818,23.4614691 4.19828364,24.0351418 3.92948364,25.67936 C3.54199273,28.0450327 0.993629091,27.3072873 0.07552,28.8130327 C1.82097455,30.0813964 3.77122909,31.0076509 2.98228364,32.9078691 C2.33995636,34.4589964 0.615447273,34.1762327 -0.000116363636,35.6424145 C0.83072,36.4837236 2.23057455,36.2765964 3.05675636,36.9456873 C3.79799273,37.5426327 4.12264727,38.6725236 3.60366545,39.7151418 C3.07072,40.7880145 1.36482909,41.0765964 1.54868364,42.4240873 C2.73442909,42.9628509 4.45195636,42.4194327 5.43290182,43.4236509 C5.76221091,43.7576145 6.05544727,44.6326691 5.95304727,45.2645236 C5.76337455,46.4269964 4.26693818,47.2578327 4.46941091,48.4668509 C5.43522909,49.1824873 6.74082909,48.0293236 7.99988364,48.5005964 C9.19261091,48.9485964 9.63595636,50.2309236 9.42417455,51.1059782 C9.22635636,51.9286691 8.12788364,52.9037964 8.76788364,54.00576 C10.0071564,54.0616145 11.16032,52.8851782 12.2704291,53.1109236 C13.5190109,53.3669236 14.0891927,54.42816 14.1019927,55.3323055 C14.1182836,56.4179782 13.3060655,57.9656145 14.0985018,58.3053964 C14.6733382,58.5520873 15.64032,57.3477236 16.4281018,56.9823418 C17.2740655,56.5867055 18.2224291,56.4470691 19.1312291,57.3197964 C19.8410473,58.0016873 19.4558836,61.0294691 20.2704291,61.2784873 C21.0337745,61.5112145 21.79712,59.7040873 22.6233018,59.1653236 C22.9735564,58.9360873 23.8509382,58.7696873 24.4281018,58.97216 C26.4202473,59.6656873 25.70112,61.50656 26.9601745,62.8912873 C28.10752,62.3944145 28.2459927,60.7909236 29.0593745,60.0892509 C31.1748655,58.2600145 32.9354473,61.5228509 33.79072,62.96576 C34.9206109,62.4223418 34.7321018,60.6722327 35.4116655,59.7122327 C36.0365382,58.8290327 37.1931927,58.5695418 38.3696291,59.2525964 C39.3668655,59.8320873 39.6321745,61.1970327 40.8470109,61.3157236 C41.6103564,60.1183418 40.8982109,58.7987782 41.9326836,57.2429964 C42.7204655,56.7158691 43.3558109,56.3772509 44.3332655,56.7519418 C45.3467927,57.1405964 46.1764655,58.5171782 47.2097745,58.1995055 C47.6065745,56.7903418 46.7408291,55.9676509 47.1062109,54.7202327 C47.5053382,53.3541236 48.4793018,52.9573236 49.2833745,52.9829236 C49.3834473,52.9864145 49.4823564,52.9992145 49.5824291,53.0213236 L46.7489745,47.3427782 Z" id="Fill-15"></path>
            <path d="M59.9911564,7.63415273 L59.2417745,5.49771636 C59.1545018,5.24404364 59.1370473,5.02644364 59.1370473,5.02644364 L59.1102836,5.02644364 C59.1102836,5.02644364 59.0846836,5.24404364 59.0055564,5.49771636 L58.2468655,7.63415273 L59.9911564,7.63415273 Z M56.07552,9.69960727 L56.6678109,9.70077091 L58.6308655,4.22469818 L59.6164655,4.22469818 L61.5783564,9.70077091 L62.1706473,9.70193455 L62.1706473,10.3814982 L60.0342109,10.3814982 L60.0342109,9.70077091 L60.6881745,9.70077091 L60.2087564,8.33117091 L58.0292655,8.33117091 L57.5486836,9.70077091 L58.2119564,9.70077091 L58.2119564,10.3803345 L56.07552,10.3803345 L56.07552,9.69960727 Z" id="Fill-26"></path>
            <path d="M52.5256145,9.69995636 L53.30176,9.69995636 L53.3029236,4.93835636 L51.85536,4.93835636 L51.8541964,5.89719273 L51.0955055,5.89719273 L51.0966691,4.22272 L56.3807418,4.22388364 L56.3807418,5.89835636 L55.6220509,5.89835636 L55.6220509,4.93835636 L54.1744873,4.93835636 L54.1744873,9.69995636 L54.9494691,9.69995636 L54.9494691,10.3806836 L52.5256145,10.3806836 L52.5256145,9.69995636 Z" id="Fill-24"></path>
            <path d="M44.2143418,9.69821091 L44.9811782,9.69821091 L44.9823418,4.89355636 L44.2143418,4.89355636 L44.2155055,4.22097455 L45.84576,4.22213818 L48.8712145,8.63581091 C48.9759418,8.80919273 49.0806691,9.08032 49.0806691,9.08032 L49.1062691,9.08032 C49.1062691,9.08032 49.0632145,8.77428364 49.0632145,8.58344727 L49.0643782,4.89355636 L48.2789236,4.89355636 L48.2789236,4.22213818 L50.7120873,4.22330182 L50.7120873,4.89472 L49.9359418,4.89472 L49.9347782,10.3801018 L49.0806691,10.3789382 L46.0552145,5.96526545 C45.9411782,5.79188364 45.84576,5.52192 45.84576,5.52192 L45.82016,5.52192 C45.82016,5.52192 45.8632145,5.82679273 45.8539055,6.01879273 L45.8539055,9.69937455 L46.6475055,9.69937455 L46.6475055,10.3789382 L44.2143418,10.3789382 L44.2143418,9.69821091 Z" id="Fill-22"></path>
            <path d="M41.6940218,7.63112727 L40.94464,5.49469091 C40.8573673,5.24101818 40.8399127,5.02341818 40.8399127,5.02341818 L40.8131491,5.02341818 C40.8131491,5.02341818 40.7875491,5.24101818 40.7084218,5.49469091 L39.9497309,7.63112727 L41.6940218,7.63112727 Z M37.7783855,9.69774545 L38.3706764,9.69774545 L40.3337309,4.22050909 L41.3193309,4.22167273 L43.2812218,9.69774545 L43.8735127,9.69774545 L43.8735127,10.3784727 L41.7370764,10.3784727 L41.7370764,9.69774545 L42.39104,9.69774545 L41.9116218,8.32930909 L39.7321309,8.32814545 L39.2515491,9.69774545 L39.9148218,9.69774545 L39.9148218,10.3773091 L37.7783855,10.3773091 L37.7783855,9.69774545 Z" id="Fill-20"></path>
            <path d="M34.1676218,8.52805818 L34.1676218,8.98187636 C34.1676218,9.43453091 34.7517673,9.70565818 35.3975855,9.70565818 C36.1039127,9.70565818 36.61824,9.37402182 36.61824,8.76427636 C36.61824,8.04864 35.8944582,7.81358545 35.1357673,7.51685818 C34.3247127,7.21082182 33.4962036,6.86173091 33.4962036,5.77256727 C33.4962036,4.61242182 34.42944,4.11554909 35.4674036,4.11554909 C36.3924945,4.11554909 37.3338764,4.46464 37.3338764,5.13605818 L37.3338764,5.85984 L36.5228218,5.85984 L36.5228218,5.43278545 C36.5228218,5.07554909 35.9735855,4.88354909 35.4674036,4.88238545 C34.8658036,4.88238545 34.3863855,5.16165818 34.3863855,5.72834909 C34.3863855,6.38347636 35.00544,6.60107636 35.6943127,6.86289455 C36.6007855,7.20267636 37.4991127,7.55176727 37.4991127,8.69445818 C37.4991127,9.87205818 36.5391127,10.4818036 35.3964218,10.4818036 C34.4375855,10.4818036 33.3647127,10.0535855 33.3647127,9.17271273 L33.3658764,8.52805818 L34.1676218,8.52805818 Z" id="Fill-18"></path>
        </g>
    </g>
</svg>